# xmcd
#
# Track frame offsets:
#	150
#	13872
#	21350
#	39355
#	43132
#	48425
#	55600
#	67042
#	77979
#	80737
#	84390
#	97677
#	101035
#	106052
#	110300
#	116145
#	121442
#	125497
#	139987
#	148090
#	150975
#	173932
#	181867
#	191522
#	195875
#	199185
#	206570
#	210277
#	212910
#	220752
#	229112
#	257930
#	262427
#	268327
#	278562
#	286555
#	300780
#	308094
#
# Disc length: 4327 seconds
#
# Revision: 1
# Processed by: cddbd v1.4PL0 Copyright (c) Steve Scherf et al.
# Submitted via: audiograbber 1.81.03
#
DISCID=2410e526
DTITLE=Tim and Willy - Velvet Elve's
DYEAR=2001
DGENRE=Country
TTITLE0=Let It Snow -  Steve Warner with Tim  and Willy
TTITLE1=Questions and Answers - Brian Regan
TTITLE2=Your Everything - Keith Urban with Tim and Willy
TTITLE3=Brothers - Brian and Dennis Regan
TTITLE4=I Just Called To Say Hi, I'm Back!
TTITLE5=Jeff Gordon's Gay - Tim Wilson
TTITLE6=Duck Calls - Andy Griggs
TTITLE7=How Cool Is That - Andy Griggs
TTITLE8=3 R's - Dennis Regan
TTITLE9=Tiger Wood's #1
TTITLE10=My Love Goes On and On - Chris Cagle with Tim and Willy
TTITLE11=Tiger Wood's #2
TTITLE12=Dingos - Jamie O Neal
TTITLE13=Tiger Woods #3
TTITLE14=Johnny Cash Weather
TTITLE15=Garth's Liver
TTITLE16=What's Updog? #1
TTITLE17=Angry Neighbor Wakeup - Jim Breuer
TTITLE18=Lobster Song - Tim Rushlow
TTITLE19=What You Need To Be A DJ
TTITLE20=What I Did Right - Sons Of The Desert
TTITLE21=What's Updog #2
TTITLE22=Rascal Flat's - Meetin' Merle
TTITLE23=What's SNU?
TTITLE24=Engineers - Don McMillan
TTITLE25=Happy Birthday Grandma
TTITLE26=Walrus Mating Call
TTITLE27=You Look Wonderfull Tonight - Pat Godwin
TTITLE28=Walrus Wakeup
TTITLE29=Reverb - Todd Glass
TTITLE30=Been There - Tim and Willy with Steve Warner
TTITLE31=Mariachis
TTITLE32=Space Ghost
TTITLE33=What I'll Do - Haywire
TTITLE34=Whiskey Bill
TTITLE35=Seamus - Tim and Willy
TTITLE36=Christmas Is A Comin' - Mike Chamberlin
TTITLE37=Welcome To Our World - Willy D. Loon
EXTD=
EXTT0=
EXTT1=
EXTT2=
EXTT3=
EXTT4=
EXTT5=
EXTT6=
EXTT7=
EXTT8=
EXTT9=
EXTT10=
EXTT11=
EXTT12=
EXTT13=
EXTT14=
EXTT15=
EXTT16=
EXTT17=
EXTT18=
EXTT19=
EXTT20=
EXTT21=
EXTT22=
EXTT23=
EXTT24=
EXTT25=
EXTT26=
EXTT27=
EXTT28=
EXTT29=
EXTT30=
EXTT31=
EXTT32=
EXTT33=
EXTT34=
EXTT35=
EXTT36=
EXTT37=With Steve Warner Backround guitar
PLAYORDER=
